<svg xmlns="http://www.w3.org/2000/svg" width="1000" height="560" viewBox="0 0 1000 560"><rect width="100%" height="100%" fill="#ffffff"/><text x="80" y="38" font-family="Arial, sans-serif" font-size="24" font-weight="700" fill="#222">TinyKV HTTP Throughput</text><text x="18" y="280" transform="rotate(-90 18,280)" font-family="Arial, sans-serif" font-size="14" fill="#555">Ops/sec</text><rect x="600.00" y="24" width="18" height="18" rx="3" fill="#1f77b4"/><text x="626.00" y="38" font-family="Arial, sans-serif" font-size="13" fill="#333">c=1</text><rect x="720.00" y="24" width="18" height="18" rx="3" fill="#ff7f0e"/><text x="746.00" y="38" font-family="Arial, sans-serif" font-size="13" fill="#333">c=8</text><rect x="840.00" y="24" width="18" height="18" rx="3" fill="#2ca02c"/><text x="866.00" y="38" font-family="Arial, sans-serif" font-size="13" fill="#333">c=32</text><line x1="80" y1="470.00" x2="960" y2="470.00" stroke="#e5e7eb" stroke-width="1"/><text x="70" y="474.00" font-family="Arial, sans-serif" font-size="12" text-anchor="end" fill="#666">0.0</text><line x1="80" y1="393.60" x2="960" y2="393.60" stroke="#e5e7eb" stroke-width="1"/><text x="70" y="397.60" font-family="Arial, sans-serif" font-size="12" text-anchor="end" fill="#666">11237.9</text><line x1="80" y1="317.20" x2="960" y2="317.20" stroke="#e5e7eb" stroke-width="1"/><text x="70" y="321.20" font-family="Arial, sans-serif" font-size="12" text-anchor="end" fill="#666">22475.8</text><line x1="80" y1="240.80" x2="960" y2="240.80" stroke="#e5e7eb" stroke-width="1"/><text x="70" y="244.80" font-family="Arial, sans-serif" font-size="12" text-anchor="end" fill="#666">33713.7</text><line x1="80" y1="164.40" x2="960" y2="164.40" stroke="#e5e7eb" stroke-width="1"/><text x="70" y="168.40" font-family="Arial, sans-serif" font-size="12" text-anchor="end" fill="#666">44951.7</text><line x1="80" y1="88.00" x2="960" y2="88.00" stroke="#e5e7eb" stroke-width="1"/><text x="70" y="92.00" font-family="Arial, sans-serif" font-size="12" text-anchor="end" fill="#666">56189.6</text><line x1="80" y1="470" x2="960" y2="470" stroke="#111827" stroke-width="2"/><line x1="80" y1="88" x2="80" y2="470" stroke="#111827" stroke-width="2"/><rect x="80.00" y="386.89" width="83.11" height="83.11" rx="4" fill="#1f77b4"/><text x="121.56" y="380.89" font-family="Arial, sans-serif" font-size="11" text-anchor="middle" fill="#374151">12225.5</text><rect x="173.11" y="173.63" width="83.11" height="296.37" rx="4" fill="#ff7f0e"/><text x="214.67" y="167.63" font-family="Arial, sans-serif" font-size="11" text-anchor="middle" fill="#374151">43594.5</text><rect x="266.22" y="139.53" width="83.11" height="330.47" rx="4" fill="#2ca02c"/><text x="307.78" y="133.53" font-family="Arial, sans-serif" font-size="11" text-anchor="middle" fill="#374151">48609.5</text><text x="214.67" y="532" font-family="Arial, sans-serif" font-size="13" text-anchor="middle" fill="#111827">PUT</text><rect x="385.33" y="382.75" width="83.11" height="87.25" rx="4" fill="#1f77b4"/><text x="426.89" y="376.75" font-family="Arial, sans-serif" font-size="11" text-anchor="middle" fill="#374151">12833.5</text><rect x="478.44" y="163.33" width="83.11" height="306.67" rx="4" fill="#ff7f0e"/><text x="520.00" y="157.33" font-family="Arial, sans-serif" font-size="11" text-anchor="middle" fill="#374151">45109.0</text><rect x="571.56" y="138.42" width="83.11" height="331.58" rx="4" fill="#2ca02c"/><text x="613.11" y="132.42" font-family="Arial, sans-serif" font-size="11" text-anchor="middle" fill="#374151">48773.5</text><text x="520.00" y="532" font-family="Arial, sans-serif" font-size="13" text-anchor="middle" fill="#111827">GET</text><rect x="690.67" y="383.68" width="83.11" height="86.32" rx="4" fill="#1f77b4"/><text x="732.22" y="377.68" font-family="Arial, sans-serif" font-size="11" text-anchor="middle" fill="#374151">12696.5</text><rect x="783.78" y="167.29" width="83.11" height="302.71" rx="4" fill="#ff7f0e"/><text x="825.33" y="161.29" font-family="Arial, sans-serif" font-size="11" text-anchor="middle" fill="#374151">44527.0</text><rect x="876.89" y="137.83" width="83.11" height="332.17" rx="4" fill="#2ca02c"/><text x="918.44" y="131.83" font-family="Arial, sans-serif" font-size="11" text-anchor="middle" fill="#374151">48860.5</text><text x="825.33" y="532" font-family="Arial, sans-serif" font-size="13" text-anchor="middle" fill="#111827">MIXED_80_20</text></svg>