<svg xmlns="http://www.w3.org/2000/svg" width="1000" height="560" viewBox="0 0 1000 560"><rect width="100%" height="100%" fill="#ffffff"/><text x="80" y="38" font-family="Arial, sans-serif" font-size="24" font-weight="700" fill="#222">TinyKV HTTP Throughput</text><text x="18" y="280" transform="rotate(-90 18,280)" font-family="Arial, sans-serif" font-size="14" fill="#555">Ops/sec</text><rect x="600.00" y="24" width="18" height="18" rx="3" fill="#1f77b4"/><text x="626.00" y="38" font-family="Arial, sans-serif" font-size="13" fill="#333">c=1</text><rect x="720.00" y="24" width="18" height="18" rx="3" fill="#ff7f0e"/><text x="746.00" y="38" font-family="Arial, sans-serif" font-size="13" fill="#333">c=8</text><rect x="840.00" y="24" width="18" height="18" rx="3" fill="#2ca02c"/><text x="866.00" y="38" font-family="Arial, sans-serif" font-size="13" fill="#333">c=32</text><line x1="80" y1="470.00" x2="960" y2="470.00" stroke="#e5e7eb" stroke-width="1"/><text x="70" y="474.00" font-family="Arial, sans-serif" font-size="12" text-anchor="end" fill="#666">0.0</text><line x1="80" y1="393.60" x2="960" y2="393.60" stroke="#e5e7eb" stroke-width="1"/><text x="70" y="397.60" font-family="Arial, sans-serif" font-size="12" text-anchor="end" fill="#666">11112.8</text><line x1="80" y1="317.20" x2="960" y2="317.20" stroke="#e5e7eb" stroke-width="1"/><text x="70" y="321.20" font-family="Arial, sans-serif" font-size="12" text-anchor="end" fill="#666">22225.6</text><line x1="80" y1="240.80" x2="960" y2="240.80" stroke="#e5e7eb" stroke-width="1"/><text x="70" y="244.80" font-family="Arial, sans-serif" font-size="12" text-anchor="end" fill="#666">33338.4</text><line x1="80" y1="164.40" x2="960" y2="164.40" stroke="#e5e7eb" stroke-width="1"/><text x="70" y="168.40" font-family="Arial, sans-serif" font-size="12" text-anchor="end" fill="#666">44451.2</text><line x1="80" y1="88.00" x2="960" y2="88.00" stroke="#e5e7eb" stroke-width="1"/><text x="70" y="92.00" font-family="Arial, sans-serif" font-size="12" text-anchor="end" fill="#666">55564.0</text><line x1="80" y1="470" x2="960" y2="470" stroke="#111827" stroke-width="2"/><line x1="80" y1="88" x2="80" y2="470" stroke="#111827" stroke-width="2"/><rect x="80.00" y="384.10" width="83.11" height="85.90" rx="4" fill="#1f77b4"/><text x="121.56" y="378.10" font-family="Arial, sans-serif" font-size="11" text-anchor="middle" fill="#374151">12494.0</text><rect x="173.11" y="164.18" width="83.11" height="305.82" rx="4" fill="#ff7f0e"/><text x="214.67" y="158.18" font-family="Arial, sans-serif" font-size="11" text-anchor="middle" fill="#374151">44482.5</text><rect x="266.22" y="144.24" width="83.11" height="325.76" rx="4" fill="#2ca02c"/><text x="307.78" y="138.24" font-family="Arial, sans-serif" font-size="11" text-anchor="middle" fill="#374151">47384.0</text><text x="214.67" y="532" font-family="Arial, sans-serif" font-size="13" text-anchor="middle" fill="#111827">PUT</text><rect x="385.33" y="383.45" width="83.11" height="86.55" rx="4" fill="#1f77b4"/><text x="426.89" y="377.45" font-family="Arial, sans-serif" font-size="11" text-anchor="middle" fill="#374151">12589.0</text><rect x="478.44" y="163.76" width="83.11" height="306.24" rx="4" fill="#ff7f0e"/><text x="520.00" y="157.76" font-family="Arial, sans-serif" font-size="11" text-anchor="middle" fill="#374151">44544.5</text><rect x="571.56" y="140.07" width="83.11" height="329.93" rx="4" fill="#2ca02c"/><text x="613.11" y="134.07" font-family="Arial, sans-serif" font-size="11" text-anchor="middle" fill="#374151">47990.0</text><text x="520.00" y="532" font-family="Arial, sans-serif" font-size="13" text-anchor="middle" fill="#111827">GET</text><rect x="690.67" y="385.83" width="83.11" height="84.17" rx="4" fill="#1f77b4"/><text x="732.22" y="379.83" font-family="Arial, sans-serif" font-size="11" text-anchor="middle" fill="#374151">12243.0</text><rect x="783.78" y="180.83" width="83.11" height="289.17" rx="4" fill="#ff7f0e"/><text x="825.33" y="174.83" font-family="Arial, sans-serif" font-size="11" text-anchor="middle" fill="#374151">42062.0</text><rect x="876.89" y="137.83" width="83.11" height="332.17" rx="4" fill="#2ca02c"/><text x="918.44" y="131.83" font-family="Arial, sans-serif" font-size="11" text-anchor="middle" fill="#374151">48316.5</text><text x="825.33" y="532" font-family="Arial, sans-serif" font-size="13" text-anchor="middle" fill="#111827">MIXED_80_20</text></svg>